<?xml version="1.0" encoding="UTF-8"?>
<svg id="Capa_2" data-name="Capa 2" xmlns="http://www.w3.org/2000/svg" xmlns:xlink="http://www.w3.org/1999/xlink" viewBox="0 0 47.55 47.55">
  <defs>
    <style>
      .cls-1 {
        fill: #9fd0a9;
      }

      .cls-1, .cls-2, .cls-3, .cls-4, .cls-5 {
        stroke-width: 0px;
      }

      .cls-2 {
        fill: none;
      }

      .cls-3 {
        fill: #1d1d1b;
      }

      .cls-4 {
        fill: #f6f6f6;
      }

      .cls-6 {
        clip-path: url(#clippath);
      }

      .cls-5 {
        fill: #14263f;
      }
    </style>
    <clipPath id="clippath">
      <rect class="cls-2" width="47.55" height="47.55" rx="10.73" ry="10.73"/>
    </clipPath>
  </defs>
  <g id="Capa_1-2" data-name="Capa 1">
    <g class="cls-6">
      <rect class="cls-5" width="47.55" height="47.55"/>
      <rect class="cls-4" x="23.77" y="23.77" width="23.77" height="23.77"/>
      <rect class="cls-3" x="23.66" y="0" width=".23" height="47.55"/>
      <rect class="cls-3" x="0" y="23.66" width="47.55" height=".23"/>
      <rect class="cls-1" x="10.94" y="8.1" width="1.87" height="8.47"/>
      <rect class="cls-1" x="10.94" y="8.1" width="1.87" height="8.47" transform="translate(24.2 .45) rotate(90)"/>
      <rect class="cls-1" x="10.94" y="31.26" width="1.87" height="8.47" transform="translate(28.57 2) rotate(45)"/>
      <rect class="cls-1" x="10.94" y="31.26" width="1.87" height="8.47" transform="translate(45.37 52.19) rotate(135)"/>
      <rect class="cls-1" x="34.91" y="8.1" width="1.87" height="8.47" transform="translate(48.18 -23.52) rotate(90)"/>
      <rect class="cls-1" x="34.91" y="29.32" width="1.87" height="8.47" transform="translate(69.4 -2.3) rotate(90)"/>
      <rect class="cls-1" x="34.91" y="33.22" width="1.87" height="8.47" transform="translate(73.3 1.6) rotate(90)"/>
    </g>
  </g>
</svg>